<svg xmlns="http://www.w3.org/2000/svg" class="data-sculpture" viewBox="0 0 540 340" fill="none" role="img" aria-label="抽象的数据结构与连接：半透明分层、石墨色核心和品牌红连接线；不代表任何具体行业或业务数据">
<defs>
 <linearGradient id="porcelain" x1="133" y1="115" x2="400" y2="228" gradientUnits="userSpaceOnUse"><stop stop-color="#fff" stop-opacity=".97"/><stop offset=".49" stop-color="#f8f7f5" stop-opacity=".9"/><stop offset="1" stop-color="#e4e2df" stop-opacity=".9"/></linearGradient>
 <linearGradient id="glass" x1="163" y1="131" x2="359" y2="279" gradientUnits="userSpaceOnUse"><stop stop-color="#fff" stop-opacity=".76"/><stop offset="1" stop-color="#dfdbd5" stop-opacity=".36"/></linearGradient>
 <linearGradient id="graphite" x1="210" y1="91" x2="327" y2="160" gradientUnits="userSpaceOnUse"><stop stop-color="#555552"/><stop offset=".5" stop-color="#2a2a29"/><stop offset="1" stop-color="#111112"/></linearGradient>
 <linearGradient id="edge" x1="107" y1="151" x2="399" y2="186" gradientUnits="userSpaceOnUse"><stop stop-color="#fff"/><stop offset=".58" stop-color="#d4d0c9"/><stop offset="1" stop-color="#e5e1da"/></linearGradient>
 <linearGradient id="filament" x1="87" y1="263" x2="439" y2="98" gradientUnits="userSpaceOnUse"><stop stop-color="#fe2c55" stop-opacity=".25"/><stop offset=".46" stop-color="#fe2c55"/><stop offset="1" stop-color="#fe2c55" stop-opacity=".5"/></linearGradient>
 <radialGradient id="ground"><stop stop-color="#62574c" stop-opacity=".16"/><stop offset="1" stop-color="#62574c" stop-opacity="0"/></radialGradient>
 <filter id="softShadow" x="-35%" y="-50%" width="180%" height="230%"><feDropShadow dx="0" dy="13" stdDeviation="15" flood-color="#594b3f" flood-opacity=".075"/></filter>
 <filter id="coreShadow" x="-40%" y="-50%" width="190%" height="230%"><feDropShadow dx="0" dy="9" stdDeviation="8" flood-color="#222" flood-opacity=".13"/></filter>
</defs>
<ellipse cx="278" cy="290" rx="204" ry="27" fill="url(#ground)"/>
<g opacity=".5" stroke="#d7d1c9" stroke-width=".6"><path d="m80 260 189 77 186-84M127 273l189-82m-134 104 189-82"/></g>
<g filter="url(#softShadow)">
 <path d="m106 218 149-67q7-3 14 0l174 72q9 4 0 9l-144 66q-9 4-17 0l-176-70q-10-4 0-10Z" fill="url(#glass)" stroke="#ccc5bb" stroke-opacity=".65"/>
 <path d="m106 183 149-67q7-3 14 0l174 72q9 4 0 9l-144 66q-9 4-17 0l-176-70q-10-4 0-10Z" fill="url(#glass)" stroke="#cfc9c1" stroke-opacity=".7"/>
 <path d="m106 141 149-67q7-3 14 0l174 72q9 4 0 9l-144 66q-9 4-17 0l-176-70q-10-4 0-10Z" fill="url(#porcelain)" stroke="url(#edge)" stroke-width="1.1"/>
 <path d="m106 151 176 70q8 4 17 0l144-66v4l-144 66q-9 4-17 0l-176-70Z" fill="#ddd8d1" fill-opacity=".46"/>
</g>
<g opacity=".65" stroke="#dedad3" stroke-width=".65"><path d="m151 146 149 61m-124-74 149 61m-124-74 149 61m-124-74 149 61m-145-37-118 54m147-42-118 54m147-42-118 54m147-42-118 54"/></g>
<path d="m84 264 54-25q8-4 16 0l64 26q8 3 16-1l59-26v-31" stroke="url(#filament)" stroke-width="1.5" stroke-linecap="round"/>
<path d="M293 207v-25" stroke="#fe2c55" stroke-width="1.3" stroke-opacity=".5" stroke-dasharray="2 4"/>
<path d="m293 182 46-20q7-3 7-11v-29q0-6 7-9l52-23" stroke="#fe2c55" stroke-width="1.3" stroke-opacity=".75" stroke-linecap="round"/>
<g filter="url(#coreShadow)">
 <path d="m208 107 64-29q5-2 10 0l66 27q6 3 0 6l-65 30q-5 2-10 0l-65-27q-6-3 0-7Z" fill="url(#graphite)" stroke="#53514f" stroke-width=".7"/>
 <path d="m208 114 65 27q5 2 10 0l65-30v13l-65 30q-5 2-10 0l-65-27Z" fill="#232323"/>
 <path d="m283 141 65-30v13l-65 30Z" fill="#181818"/>
 <path d="m216 104 57-25q4-2 8 0l59 24" stroke="#b1ada7" stroke-opacity=".4" stroke-width=".65"/>
 <path d="m232 107 20-9m-7 15 33-15m-20 21 45-20" stroke="#ada8a1" stroke-width="1.3" stroke-opacity=".5" stroke-linecap="round"/>
 <ellipse cx="319" cy="109" rx="3.2" ry="1.6" fill="#fe2c55"/>
 <path d="m225 133 40 16" stroke="#504d49" stroke-width=".8"/>
</g>
<circle cx="84" cy="264" r="3.2" fill="#fe2c55"/><circle cx="84" cy="264" r="7.5" stroke="#fe2c55" stroke-opacity=".13"/>
<circle cx="405" cy="90" r="3" fill="#fe2c55"/><circle cx="405" cy="90" r="7" stroke="#fe2c55" stroke-opacity=".13"/>
<circle cx="153" cy="214" r="1.4" fill="#b2a89c"/><circle cx="365" cy="241" r="1.4" fill="#b2a89c"/>
</svg>
